0
SECTION
2
HEADER
9
$INSUNITS
70
4
0
ENDSEC
0
SECTION
2
TABLES
0
TABLE
2
LTYPE
0
LTYPE
72
65
70
64
2
CONTINUOUS
3
______
73
0
40
0
0
ENDTAB
0
TABLE
2
LAYER
0
ENDTAB
0
ENDSEC
0
SECTION
2
ENTITIES
0
LINE
8
0
10
9.25
20
-8.25
11
26.75
21
-8.25
0
LINE
8
0
10
26.75
20
-8.25
11
26.75
21
8.25
0
LINE
8
0
10
26.75
20
8.25
11
9.25
21
8.25
0
LINE
8
0
10
9.25
20
8.25
11
9.25
21
-8.25
0
LINE
8
0
10
9.25
20
8.75
11
26.75
21
8.75
0
LINE
8
0
10
26.75
20
8.75
11
26.75
21
25.25
0
LINE
8
0
10
26.75
20
25.25
11
9.25
21
25.25
0
LINE
8
0
10
9.25
20
25.25
11
9.25
21
8.75
0
LINE
8
0
10
27.25
20
4.75
11
44.75
21
4.75
0
LINE
8
0
10
44.75
20
4.75
11
44.75
21
21.25
0
LINE
8
0
10
44.75
20
21.25
11
27.25
21
21.25
0
LINE
8
0
10
27.25
20
21.25
11
27.25
21
4.75
0
LINE
8
0
10
27.25
20
21.75
11
44.75
21
21.75
0
LINE
8
0
10
44.75
20
21.75
11
44.75
21
38.25
0
LINE
8
0
10
44.75
20
38.25
11
27.25
21
38.25
0
LINE
8
0
10
27.25
20
38.25
11
27.25
21
21.75
0
LINE
8
0
10
27.25
20
38.75
11
44.75
21
38.75
0
LINE
8
0
10
44.75
20
38.75
11
44.75
21
55.25
0
LINE
8
0
10
44.75
20
55.25
11
27.25
21
55.25
0
LINE
8
0
10
27.25
20
55.25
11
27.25
21
38.75
0
LINE
8
0
10
45.25
20
12.75
11
62.75
21
12.75
0
LINE
8
0
10
62.75
20
12.75
11
62.75
21
29.25
0
LINE
8
0
10
62.75
20
29.25
11
45.25
21
29.25
0
LINE
8
0
10
45.25
20
29.25
11
45.25
21
12.75
0
LINE
8
0
10
45.25
20
29.75
11
62.75
21
29.75
0
LINE
8
0
10
62.75
20
29.75
11
62.75
21
46.25
0
LINE
8
0
10
62.75
20
46.25
11
45.25
21
46.25
0
LINE
8
0
10
45.25
20
46.25
11
45.25
21
29.75
0
LINE
8
0
10
45.25
20
46.75
11
62.75
21
46.75
0
LINE
8
0
10
62.75
20
46.75
11
62.75
21
63.25
0
LINE
8
0
10
62.75
20
63.25
11
45.25
21
63.25
0
LINE
8
0
10
45.25
20
63.25
11
45.25
21
46.75
0
LINE
8
0
10
63.25
20
0.75
11
80.75
21
0.75
0
LINE
8
0
10
80.75
20
0.75
11
80.75
21
17.25
0
LINE
8
0
10
80.75
20
17.25
11
63.25
21
17.25
0
LINE
8
0
10
63.25
20
17.25
11
63.25
21
0.75
0
LINE
8
0
10
63.25
20
17.75
11
80.75
21
17.75
0
LINE
8
0
10
80.75
20
17.75
11
80.75
21
34.25
0
LINE
8
0
10
80.75
20
34.25
11
63.25
21
34.25
0
LINE
8
0
10
63.25
20
34.25
11
63.25
21
17.75
0
LINE
8
0
10
63.25
20
34.75
11
80.75
21
34.75
0
LINE
8
0
10
80.75
20
34.75
11
80.75
21
51.25
0
LINE
8
0
10
80.75
20
51.25
11
63.25
21
51.25
0
LINE
8
0
10
63.25
20
51.25
11
63.25
21
34.75
0
LINE
8
0
10
81.25
20
-17.25
11
98.75
21
-17.25
0
LINE
8
0
10
98.75
20
-17.25
11
98.75
21
-0.75
0
LINE
8
0
10
98.75
20
-0.75
11
81.25
21
-0.75
0
LINE
8
0
10
81.25
20
-0.75
11
81.25
21
-17.25
0
LINE
8
0
10
81.25
20
-0.25
11
98.75
21
-0.25
0
LINE
8
0
10
98.75
20
-0.25
11
98.75
21
16.25
0
LINE
8
0
10
98.75
20
16.25
11
81.25
21
16.25
0
LINE
8
0
10
81.25
20
16.25
11
81.25
21
-0.25
0
LINE
8
0
10
81.25
20
16.75
11
98.75
21
16.75
0
LINE
8
0
10
98.75
20
16.75
11
98.75
21
33.25
0
LINE
8
0
10
98.75
20
33.25
11
81.25
21
33.25
0
LINE
8
0
10
81.25
20
33.25
11
81.25
21
16.75
0
ENDSEC
0
EOF