0
SECTION
2
HEADER
9
$INSUNITS
70
4
0
ENDSEC
0
SECTION
2
TABLES
0
TABLE
2
LTYPE
0
LTYPE
72
65
70
64
2
CONTINUOUS
3
______
73
0
40
0
0
ENDTAB
0
TABLE
2
LAYER
0
ENDTAB
0
ENDSEC
0
SECTION
2
ENTITIES
0
LINE
8
0
10
95.4329039
20
52.3683259
11
112.2988973
21
29.4917692
0
LINE
8
0
10
112.876905
20
27.5022472
11
110.6561514
21
-4.25601
0
LINE
8
0
10
110.6501528
20
-4.3766607
11
110.3379643
21
-14.9405388
0
LINE
8
0
10
110.2230586
20
-15.6788321
11
105.9166442
21
-30.6970835
0
LINE
8
0
10
102.205947
20
-32.7539564
11
84.0271859
21
-27.5412805
0
LINE
8
0
10
83.8554686
20
-27.4974865
11
68.0086329
21
-23.9509496
0
LINE
8
0
10
65.729385
20
-20.3996354
11
67.2543278
21
-13.2253437
0
LINE
8
0
10
64.3256207
20
-9.6016141
11
12.0071333
21
-9.5015871
0
LINE
8
0
10
11.7399305
20
-9.5129975
11
-7.0544224
21
-11.1572903
0
LINE
8
0
10
-10.3044736
20
-8.4301733
11
-13.2677689
21
25.4404465
0
LINE
8
0
10
-10.5406519
20
28.6904977
11
6.3903423
21
30.1717677
0
LINE
8
0
10
9.1288696
20
33.1661506
11
9.0877421
21
54.4441846
0
LINE
8
0
10
11.642715
20
57.4167924
11
28.861466
21
59.999605
0
LINE
8
0
10
29.3064874
20
60.0327959
11
50.7805617
21
60.0327959
0
LINE
8
0
10
51.3788463
20
59.9725332
11
72.6193112
21
55.6497521
0
LINE
8
0
10
72.9203267
20
55.6042539
11
93.3154886
21
53.5733089
0
ARC
8
0
10
109.8842128
20
27.7115167
40
3
50
355.9999987
51
36.399902
0
ARC
8
0
10
113.6488436
20
-4.4652795
40
3
50
175.9999987
51
178.3072593
0
ARC
8
0
10
107.3392735
20
-14.85192
40
3
50
343.9999976
51
358.3072593
0
ARC
8
0
10
103.0328592
20
-29.8701713
40
3
50
253.9999976
51
343.9999976
0
ARC
8
0
10
83.2002737
20
-30.4250656
40
3
50
73.9999976
51
77.385025
0
ARC
8
0
10
68.6638278
20
-21.0233705
40
3
50
167.9999995
51
257.385025
0
ARC
8
0
10
64.319885
20
-12.6016086
40
3
50
347.9999995
51
89.8904561
0
ARC
8
0
10
12.0013976
20
-12.5015816
40
3
50
89.8904561
51
94.9999976
0
ARC
8
0
10
-7.3158895
20
-8.1687062
40
3
50
184.9999976
51
274.9999976
0
ARC
8
0
10
-10.2791848
20
25.7019136
40
3
50
94.9999976
51
184.9999976
0
ARC
8
0
10
6.1288752
20
33.1603519
40
3
50
274.9999976
51
0.1107471
0
ARC
8
0
10
12.0877365
20
54.4499833
40
3
50
98.5307679
51
180.1107471
0
ARC
8
0
10
29.3064874
20
57.0327959
40
3
50
90
51
98.5307679
0
ARC
8
0
10
50.7805617
20
57.0327959
40
3
50
78.4964758
51
90
0
ARC
8
0
10
73.2175958
20
58.5894894
40
3
50
258.4964758
51
264.3132462
0
ARC
8
0
10
93.0182195
20
50.5880734
40
3
50
36.399902
51
84.3132462
0
LINE
8
0
10
-8.2249285
20
-9.2520566
11
9.7065761
21
-7.6832532
0
LINE
8
0
10
9.7065761
20
-7.6832532
11
8.2249285
21
9.2520566
0
LINE
8
0
10
8.2249285
20
9.2520566
11
-9.7065761
21
7.6832532
0
LINE
8
0
10
-9.7065761
20
7.6832532
11
-8.2249285
21
-9.2520566
0
LINE
8
0
10
-9.8808876
20
9.6756427
11
8.050617
21
11.2444461
0
LINE
8
0
10
8.050617
20
11.2444461
11
6.5689694
21
28.1797559
0
LINE
8
0
10
6.5689694
20
28.1797559
11
-11.3625352
21
26.6109525
0
LINE
8
0
10
-11.3625352
20
26.6109525
11
-9.8808876
21
9.6756427
0
LINE
8
0
10
11.0827387
20
0.0327959
11
29.0827387
21
0.0327959
0
LINE
8
0
10
29.0827387
20
0.0327959
11
29.0827387
21
17.0327959
0
LINE
8
0
10
29.0827387
20
17.0327959
11
11.0827387
21
17.0327959
0
LINE
8
0
10
11.0827387
20
17.0327959
11
11.0827387
21
0.0327959
0
LINE
8
0
10
11.0827387
20
19.0327958
11
29.0827387
21
19.0327958
0
LINE
8
0
10
29.0827387
20
19.0327958
11
29.0827387
21
36.0327958
0
LINE
8
0
10
29.0827387
20
36.0327958
11
11.0827387
21
36.0327958
0
LINE
8
0
10
11.0827387
20
36.0327958
11
11.0827387
21
19.0327958
0
LINE
8
0
10
11.0827387
20
38.0327959
11
29.0827387
21
38.0327959
0
LINE
8
0
10
29.0827387
20
38.0327959
11
29.0827387
21
55.0327959
0
LINE
8
0
10
29.0827387
20
55.0327959
11
11.0827387
21
55.0327959
0
LINE
8
0
10
11.0827387
20
55.0327959
11
11.0827387
21
38.0327959
0
LINE
8
0
10
31.0827388
20
3.0327958
11
49.0827388
21
3.0327958
0
LINE
8
0
10
49.0827388
20
3.0327958
11
49.0827388
21
20.0327958
0
LINE
8
0
10
49.0827388
20
20.0327958
11
31.0827388
21
20.0327958
0
LINE
8
0
10
31.0827388
20
20.0327958
11
31.0827388
21
3.0327958
0
LINE
8
0
10
31.0827387
20
22.0327959
11
49.0827387
21
22.0327959
0
LINE
8
0
10
49.0827387
20
22.0327959
11
49.0827387
21
39.0327959
0
LINE
8
0
10
49.0827387
20
39.0327959
11
31.0827387
21
39.0327959
0
LINE
8
0
10
31.0827387
20
39.0327959
11
31.0827387
21
22.0327959
0
LINE
8
0
10
31.0827387
20
41.0327959
11
49.0827387
21
41.0327959
0
LINE
8
0
10
49.0827387
20
41.0327959
11
49.0827387
21
58.0327959
0
LINE
8
0
10
49.0827387
20
58.0327959
11
31.0827387
21
58.0327959
0
LINE
8
0
10
31.0827387
20
58.0327959
11
31.0827387
21
41.0327959
0
LINE
8
0
10
50.7915755
20
-0.6479307
11
68.7806104
21
-1.2761216
0
LINE
8
0
10
68.7806104
20
-1.2761216
11
69.3739019
21
15.7135225
0
LINE
8
0
10
69.3739019
20
15.7135225
11
51.384867
21
16.3417134
0
LINE
8
0
10
51.384867
20
16.3417134
11
50.7915755
21
-0.6479307
0
LINE
8
0
10
51.4546659
20
18.3404949
11
69.4437008
21
17.712304
0
LINE
8
0
10
69.4437008
20
17.712304
11
70.0369923
21
34.7019481
0
LINE
8
0
10
70.0369923
20
34.7019481
11
52.0479574
21
35.330139
0
LINE
8
0
10
52.0479574
20
35.330139
11
51.4546659
21
18.3404949
0
LINE
8
0
10
52.1177565
20
37.3289207
11
70.1067914
21
36.7007298
0
LINE
8
0
10
70.1067914
20
36.7007298
11
70.7000829
21
53.6903739
0
LINE
8
0
10
70.7000829
20
53.6903739
11
52.711048
21
54.3185648
0
LINE
8
0
10
52.711048
20
54.3185648
11
52.1177565
21
37.3289207
0
LINE
8
0
10
70.7144971
20
-2.0247959
11
88.67065
21
-3.2804124
0
LINE
8
0
10
88.67065
20
-3.2804124
11
89.8565101
21
13.6781765
0
LINE
8
0
10
89.8565101
20
13.6781765
11
71.9003572
21
14.933793
0
LINE
8
0
10
71.9003572
20
14.933793
11
70.7144971
21
-2.0247959
0
LINE
8
0
10
72.0398701
20
16.9289209
11
89.996023
21
15.6733044
0
LINE
8
0
10
89.996023
20
15.6733044
11
91.1818831
21
32.6318933
0
LINE
8
0
10
91.1818831
20
32.6318933
11
73.2257302
21
33.8875098
0
LINE
8
0
10
73.2257302
20
33.8875098
11
72.0398701
21
16.9289209
0
LINE
8
0
10
73.3652429
20
35.882638
11
91.3213958
21
34.6270215
0
LINE
8
0
10
91.3213958
20
34.6270215
11
92.5072559
21
51.5856104
0
LINE
8
0
10
92.5072559
20
51.5856104
11
74.551103
21
52.8412269
0
LINE
8
0
10
74.551103
20
52.8412269
11
73.3652429
21
35.882638
0
LINE
8
0
10
67.4844276
20
-21.7622778
11
85.0910844
21
-25.5046882
0
LINE
8
0
10
85.0910844
20
-25.5046882
11
88.6255832
21
-8.876179
0
LINE
8
0
10
88.6255832
20
-8.876179
11
71.0189264
21
-5.1337686
0
LINE
8
0
10
71.0189264
20
-5.1337686
11
67.4844276
21
-21.7622778
0
LINE
8
0
10
86.415773
20
-26.145598
11
103.7184835
21
-31.1070704
0
LINE
8
0
10
103.7184835
20
-31.1070704
11
108.4043186
21
-14.7656216
0
LINE
8
0
10
108.4043186
20
-14.7656216
11
91.1016081
21
-9.8041492
0
LINE
8
0
10
91.1016081
20
-9.8041492
11
86.415773
21
-26.145598
0
LINE
8
0
10
92.9677418
20
29.4996882
11
90.6657781
21
-3.4199255
0
LINE
8
0
10
90.6657781
20
-3.4199255
11
108.621931
21
-4.675542
0
LINE
8
0
10
108.621931
20
-4.675542
11
110.9238947
21
28.2440717
0
LINE
8
0
10
110.9238947
20
28.2440717
11
92.9677418
21
29.4996882
0
LINE
8
0
10
95.189011
20
-7.5454999
11
101.8726902
21
-8.0128683
0
LINE
8
0
10
101.8726902
20
-8.0128683
11
102.054057
21
-5.4192017
0
LINE
8
0
10
102.054057
20
-5.4192017
11
95.3703778
21
-4.9518333
0
LINE
8
0
10
95.3703778
20
-4.9518333
11
95.189011
21
-7.5454999
0
LINE
8
0
10
105.3676521
20
-8.2071378
11
108.3603443
21
-8.4164072
0
LINE
8
0
10
108.3603443
20
-8.4164072
11
108.5347355
21
-5.922497
0
LINE
8
0
10
108.5347355
20
-5.922497
11
105.5420433
21
-5.7132276
0
LINE
8
0
10
105.5420433
20
-5.7132276
11
105.3676521
21
-8.2071378
0
ENDSEC
0
EOF