0
SECTION
2
HEADER
9
$INSUNITS
70
4
0
ENDSEC
0
SECTION
2
TABLES
0
TABLE
2
LTYPE
0
LTYPE
72
65
70
64
2
CONTINUOUS
3
______
73
0
40
0
0
ENDTAB
0
TABLE
2
LAYER
0
ENDTAB
0
ENDSEC
0
SECTION
2
ENTITIES
0
LINE
8
0
10
-9.750154
20
8.1813506
11
8.1813506
21
9.750154
0
LINE
8
0
10
8.1813506
20
9.750154
11
9.750154
21
-8.1813506
0
LINE
8
0
10
9.750154
20
-8.1813506
11
-8.1813506
21
-9.750154
0
LINE
8
0
10
-8.1813506
20
-9.750154
11
-9.750154
21
8.1813506
0
LINE
8
0
10
-11.4061131
20
27.1090499
11
6.5253915
21
28.6778533
0
LINE
8
0
10
6.5253915
20
28.6778533
11
8.0941949
21
10.7463487
0
LINE
8
0
10
8.0941949
20
10.7463487
11
-9.8373097
21
9.1775453
0
LINE
8
0
10
-9.8373097
20
9.1775453
11
-11.4061131
21
27.1090499
0
LINE
8
0
10
10.932076
20
17.6519485
11
28.932076
21
17.6519485
0
LINE
8
0
10
28.932076
20
17.6519485
11
28.932076
21
-0.3480515
0
LINE
8
0
10
28.932076
20
-0.3480515
11
10.932076
21
-0.3480515
0
LINE
8
0
10
10.932076
20
-0.3480515
11
10.932076
21
17.6519485
0
LINE
8
0
10
10.9320761
20
36.6519486
11
28.9320761
21
36.6519486
0
LINE
8
0
10
28.9320761
20
36.6519486
11
28.9320761
21
18.6519486
0
LINE
8
0
10
28.9320761
20
18.6519486
11
10.9320761
21
18.6519486
0
LINE
8
0
10
10.9320761
20
18.6519486
11
10.9320761
21
36.6519486
0
LINE
8
0
10
10.9320761
20
55.6519485
11
28.9320761
21
55.6519485
0
LINE
8
0
10
28.9320761
20
55.6519485
11
28.9320761
21
37.6519485
0
LINE
8
0
10
28.9320761
20
37.6519485
11
10.9320761
21
37.6519485
0
LINE
8
0
10
10.9320761
20
37.6519485
11
10.9320761
21
55.6519485
0
LINE
8
0
10
30.9320761
20
20.6519485
11
48.9320761
21
20.6519485
0
LINE
8
0
10
48.9320761
20
20.6519485
11
48.9320761
21
2.6519485
0
LINE
8
0
10
48.9320761
20
2.6519485
11
30.9320761
21
2.6519485
0
LINE
8
0
10
30.9320761
20
2.6519485
11
30.9320761
21
20.6519485
0
LINE
8
0
10
30.932076
20
39.6519485
11
48.932076
21
39.6519485
0
LINE
8
0
10
48.932076
20
39.6519485
11
48.932076
21
21.6519485
0
LINE
8
0
10
48.932076
20
21.6519485
11
30.932076
21
21.6519485
0
LINE
8
0
10
30.932076
20
21.6519485
11
30.932076
21
39.6519485
0
LINE
8
0
10
30.932076
20
58.6519486
11
48.932076
21
58.6519486
0
LINE
8
0
10
48.932076
20
58.6519486
11
48.932076
21
40.6519486
0
LINE
8
0
10
48.932076
20
40.6519486
11
30.932076
21
40.6519486
0
LINE
8
0
10
30.932076
20
40.6519486
11
30.932076
21
58.6519486
0
LINE
8
0
10
53.5016541
20
16.9605614
11
71.490689
21
16.3323705
0
LINE
8
0
10
71.490689
20
16.3323705
11
70.8624981
21
-1.6566644
0
LINE
8
0
10
70.8624981
20
-1.6566644
11
52.8734632
21
-1.0284735
0
LINE
8
0
10
52.8734632
20
-1.0284735
11
53.5016541
21
16.9605614
0
LINE
8
0
10
54.1647444
20
35.9489871
11
72.1537793
21
35.3207962
0
LINE
8
0
10
72.1537793
20
35.3207962
11
71.5255884
21
17.3317613
0
LINE
8
0
10
71.5255884
20
17.3317613
11
53.5365535
21
17.9599522
0
LINE
8
0
10
53.5365535
20
17.9599522
11
54.1647444
21
35.9489871
0
LINE
8
0
10
54.8278349
20
54.9374129
11
72.8168698
21
54.309222
0
LINE
8
0
10
72.8168698
20
54.309222
11
72.1886789
21
36.3201871
0
LINE
8
0
10
72.1886789
20
36.3201871
11
54.199644
21
36.948378
0
LINE
8
0
10
54.199644
20
36.948378
11
54.8278349
21
54.9374129
0
LINE
8
0
10
74.0345726
20
15.5517276
11
91.9907255
21
14.2961111
0
LINE
8
0
10
91.9907255
20
14.2961111
11
90.735109
21
-3.6600418
0
LINE
8
0
10
90.735109
20
-3.6600418
11
72.7789561
21
-2.4044253
0
LINE
8
0
10
72.7789561
20
-2.4044253
11
74.0345726
21
15.5517276
0
LINE
8
0
10
75.3599456
20
34.5054445
11
93.3160985
21
33.249828
0
LINE
8
0
10
93.3160985
20
33.249828
11
92.060482
21
15.2936751
0
LINE
8
0
10
92.060482
20
15.2936751
11
74.1043291
21
16.5492916
0
LINE
8
0
10
74.1043291
20
16.5492916
11
75.3599456
21
34.5054445
0
LINE
8
0
10
76.6853185
20
53.4591615
11
94.6414714
21
52.203545
0
LINE
8
0
10
94.6414714
20
52.203545
11
93.3858549
21
34.2473921
0
LINE
8
0
10
93.3858549
20
34.2473921
11
75.429702
21
35.5030086
0
LINE
8
0
10
75.429702
20
35.5030086
11
76.6853185
21
53.4591615
0
LINE
8
0
10
78.7258814
20
-4.5755434
11
96.1912045
21
-8.9301375
0
LINE
8
0
10
96.1912045
20
-8.9301375
11
91.8366104
21
-26.3954606
0
LINE
8
0
10
91.8366104
20
-26.3954606
11
74.3712873
21
-22.0408665
0
LINE
8
0
10
74.3712873
20
-22.0408665
11
78.7258814
21
-4.5755434
0
LINE
8
0
10
99.3298881
20
-9.7938347
11
116.4489054
21
-15.3561406
0
LINE
8
0
10
116.4489054
20
-15.3561406
11
110.8865995
21
-32.4751579
0
LINE
8
0
10
110.8865995
20
-32.4751579
11
93.7675822
21
-26.912852
0
LINE
8
0
10
93.7675822
20
-26.912852
11
99.3298881
21
-9.7938347
0
ENDSEC
0
EOF