M48
; DRILL file {KiCad (6.0.2)} date Sun Mar 13 23:04:31 2022
; FORMAT={-:-/ absolute / inch / decimal}
; #@! TF.CreationDate,2022-03-13T23:04:31-07:00
; #@! TF.GenerationSoftware,Kicad,Pcbnew,(6.0.2)
; #@! TF.FileFunction,NonPlated,1,2,NPTH
FMAT,2
INCH
; #@! TA.AperFunction,NonPlated,NPTH,ComponentDrill
T1C0.0354
; #@! TA.AperFunction,NonPlated,NPTH,ComponentDrill
T2C0.0670
; #@! TA.AperFunction,NonPlated,NPTH,ComponentDrill
T3C0.1181
; #@! TA.AperFunction,NonPlated,NPTH,ComponentDrill
T4C0.1350
%
G90
G05
T1
X3.8238Y-0.2511
X3.9416Y-0.2593
T2
X-0.2809Y0.7263
X-0.2809Y0.7263
X-0.2157Y-0.0189
X-0.2157Y-0.0189
X0.1505Y0.7641
X0.1505Y0.7641
X0.2157Y0.0189
X0.2157Y0.0189
X0.5741Y1.832
X0.5741Y1.832
X0.5741Y1.084
X0.5741Y1.084
X0.5741Y0.3359
X0.5741Y0.3359
X1.0072Y1.832
X1.0072Y1.832
X1.0072Y1.084
X1.0072Y1.084
X1.0072Y0.3359
X1.0072Y0.3359
X1.3615Y1.9501
X1.3615Y1.9501
X1.3615Y1.2021
X1.3615Y1.2021
X1.3615Y0.454
X1.3615Y0.454
X1.7946Y1.9501
X1.7946Y1.9501
X1.7946Y1.2021
X1.7946Y1.2021
X1.7946Y0.454
X1.7946Y0.454
X2.1491Y0.3041
X2.1491Y0.3041
X2.1752Y1.0517
X2.1752Y1.0517
X2.2013Y1.7993
X2.2013Y1.7993
X2.5819Y0.289
X2.5819Y0.289
X2.608Y1.0366
X2.608Y1.0366
X2.6341Y1.7842
X2.6341Y1.7842
X2.8612Y-0.5581
X2.8612Y-0.5581
X2.9448Y0.2445
X2.9448Y0.2445
X2.997Y0.9907
X2.997Y0.9907
X3.0492Y1.7369
X3.0492Y1.7369
X3.2848Y-0.6481
X3.2848Y-0.6481
X3.3769Y0.2143
X3.3769Y0.2143
X3.429Y0.9605
X3.429Y0.9605
X3.4812Y1.7067
X3.4812Y1.7067
X3.6269Y-0.7457
X3.6269Y-0.7457
X4.0432Y-0.865
X4.0432Y-0.865
T3
X-0.2742Y0.8751
X-0.209Y0.1299
X-0.0856Y0.9785
X-0.0856Y0.9785
X-0.0204Y0.2334
X-0.0204Y0.2334
X0.118Y0.9094
X0.1832Y0.1642
X0.5938Y1.9796
X0.5938Y1.2316
X0.5938Y0.4836
X0.7907Y2.0663
X0.7907Y2.0663
X0.7907Y1.3182
X0.7907Y1.3182
X0.7907Y0.5702
X0.7907Y0.5702
X0.9875Y1.9796
X0.9875Y1.2316
X0.9875Y0.4836
X1.3812Y2.0977
X1.3812Y1.3497
X1.3812Y0.6017
X1.5781Y2.1844
X1.5781Y2.1844
X1.5781Y1.4363
X1.5781Y1.4363
X1.5781Y0.6883
X1.5781Y0.6883
X1.7749Y2.0977
X1.7749Y1.3497
X1.7749Y0.6017
X2.1739Y0.451
X2.2Y1.1986
X2.2261Y1.9461
X2.3736Y0.5307
X2.3736Y0.5307
X2.3997Y1.2783
X2.3997Y1.2783
X2.4258Y2.0258
X2.4258Y2.0258
X2.5673Y0.4372
X2.5935Y1.1848
X2.6196Y1.9324
X2.9112Y-0.4178
X2.9748Y0.3904
X3.027Y1.1366
X3.0791Y1.8828
X3.1217Y-0.374
X3.1217Y-0.374
X3.1772Y0.4631
X3.1772Y0.4631
X3.2294Y1.2093
X3.2294Y1.2093
X3.2815Y1.9555
X3.2815Y1.9555
X3.2963Y-0.4996
X3.3675Y0.3629
X3.4197Y1.1092
X3.4719Y1.8554
X3.6865Y-0.6092
X3.8996Y-0.5802
X3.8996Y-0.5802
X4.065Y-0.7177
T4
X-0.0652Y0.7452
X-0.0652Y0.7452
X0.0Y0.0
X0.0Y0.0
X0.7907Y1.832
X0.7907Y1.832
X0.7907Y1.084
X0.7907Y1.084
X0.7907Y0.3359
X0.7907Y0.3359
X1.5781Y1.9501
X1.5781Y1.9501
X1.5781Y1.2021
X1.5781Y1.2021
X1.5781Y0.454
X1.5781Y0.454
X2.3655Y0.2966
X2.3655Y0.2966
X2.3916Y1.0441
X2.3916Y1.0441
X2.4177Y1.7917
X2.4177Y1.7917
X3.073Y-0.6031
X3.073Y-0.6031
X3.1608Y0.2294
X3.1608Y0.2294
X3.213Y0.9756
X3.213Y0.9756
X3.2652Y1.7218
X3.2652Y1.7218
X3.835Y-0.8053
X3.835Y-0.8053
T0
M30
