%TF.GenerationSoftware,KiCad,Pcbnew,(6.0.2)*%
%TF.CreationDate,2022-03-14T22:31:35-07:00*%
%TF.ProjectId,polished,706f6c69-7368-4656-942e-6b696361645f,v1.0.0*%
%TF.SameCoordinates,Original*%
%TF.FileFunction,Profile,NP*%
%FSLAX46Y46*%
G04 Gerber Fmt 4.6, Leading zero omitted, Abs format (unit mm)*
G04 Created by KiCad (PCBNEW (6.0.2)) date 2022-03-14 22:31:35*
%MOMM*%
%LPD*%
G01*
G04 APERTURE LIST*
%TA.AperFunction,Profile*%
%ADD10C,0.150000*%
%TD*%
G04 APERTURE END LIST*
D10*
X-10304474Y-8430173D02*
G75*
G03*
X-7054423Y-11157290I2988584J261467D01*
G01*
X11739930Y-9512998D02*
X-7054422Y-11157290D01*
X114300000Y27502247D02*
G75*
G03*
X113732517Y29491769I-2228429J440067D01*
G01*
X65729385Y-20399635D02*
G75*
G03*
X68008632Y-23950950I2934443J-623736D01*
G01*
X110223059Y-15678832D02*
X105916644Y-30697084D01*
X-10540652Y28690498D02*
X6390342Y30171768D01*
X67254327Y-13225344D02*
G75*
G03*
X64325621Y-9601614I-2934442J623736D01*
G01*
X51378846Y59972533D02*
X72054675Y55810199D01*
X29306487Y60032796D02*
G75*
G03*
X28861466Y59999605I-8J-2999885D01*
G01*
X102205947Y-32753956D02*
G75*
G03*
X105916644Y-30697083I826912J2883785D01*
G01*
X97655127Y52368326D02*
X113732517Y29491769D01*
X12007133Y-9501586D02*
G75*
G03*
X11739930Y-9512997I-5737J-3000069D01*
G01*
X65729385Y-20399635D02*
X67254328Y-13225344D01*
X11642715Y57416792D02*
G75*
G03*
X9087743Y54444184I445021J-2966808D01*
G01*
X-10540652Y28690498D02*
G75*
G03*
X-13267769Y25440447I261467J-2988584D01*
G01*
X11642715Y57416792D02*
X28861466Y59999605D01*
X-10304474Y-8430173D02*
X-13267769Y25440447D01*
X51378846Y59972533D02*
G75*
G03*
X50780561Y60032796I-598290J-2939774D01*
G01*
X6390342Y30171767D02*
G75*
G03*
X9128869Y33166151I-261470J2988587D01*
G01*
X110223059Y-15678832D02*
G75*
G03*
X110900668Y-12613364I-12222257J4309305D01*
G01*
X83855469Y-27497487D02*
X68008633Y-23950950D01*
X114300000Y27502247D02*
X110900668Y-12613364D01*
X102205947Y-32753956D02*
X84027186Y-27541281D01*
X64325621Y-9601614D02*
X12007133Y-9501587D01*
X72054675Y55810199D02*
G75*
G03*
X72920327Y55604254I1165652J2977329D01*
G01*
X97655126Y52368326D02*
G75*
G03*
X95255323Y53844429I-2978012J-2152747D01*
G01*
X9128870Y33166151D02*
X9087742Y54444185D01*
X29306487Y60032796D02*
X50780562Y60032796D01*
X84027186Y-27541281D02*
G75*
G03*
X83855469Y-27497487I-827023J-2884221D01*
G01*
X72920327Y55604254D02*
X95255323Y53844429D01*
M02*
