%TF.GenerationSoftware,KiCad,Pcbnew,(6.0.2)*%
%TF.CreationDate,2022-03-13T23:04:35-07:00*%
%TF.ProjectId,polished,706f6c69-7368-4656-942e-6b696361645f,v1.0.0*%
%TF.SameCoordinates,Original*%
%TF.FileFunction,Legend,Top*%
%TF.FilePolarity,Positive*%
%FSLAX46Y46*%
G04 Gerber Fmt 4.6, Leading zero omitted, Abs format (unit mm)*
G04 Created by KiCad (PCBNEW (6.0.2)) date 2022-03-13 23:04:35*
%MOMM*%
%LPD*%
G01*
G04 APERTURE LIST*
G04 Aperture macros list*
%AMRotRect*
0 Rectangle, with rotation*
0 The origin of the aperture is its center*
0 $1 length*
0 $2 width*
0 $3 Rotation angle, in degrees counterclockwise*
0 Add horizontal line*
21,1,$1,$2,0,0,$3*%
G04 Aperture macros list end*
%ADD10C,0.300000*%
%ADD11C,0.150000*%
%ADD12C,1.752600*%
%ADD13RotRect,1.752600X1.752600X266.000000*%
G04 APERTURE END LIST*
D10*
X27988571Y-3218571D02*
X27988571Y-2218571D01*
X27988571Y-2361428D02*
X28060000Y-2290000D01*
X28202857Y-2218571D01*
X28417142Y-2218571D01*
X28560000Y-2290000D01*
X28631428Y-2432857D01*
X28631428Y-3218571D01*
X28631428Y-2432857D02*
X28702857Y-2290000D01*
X28845714Y-2218571D01*
X29060000Y-2218571D01*
X29202857Y-2290000D01*
X29274285Y-2432857D01*
X29274285Y-3218571D01*
X30631428Y-3218571D02*
X30631428Y-2432857D01*
X30560000Y-2290000D01*
X30417142Y-2218571D01*
X30131428Y-2218571D01*
X29988571Y-2290000D01*
X30631428Y-3147142D02*
X30488571Y-3218571D01*
X30131428Y-3218571D01*
X29988571Y-3147142D01*
X29917142Y-3004285D01*
X29917142Y-2861428D01*
X29988571Y-2718571D01*
X30131428Y-2647142D01*
X30488571Y-2647142D01*
X30631428Y-2575714D01*
X31988571Y-3218571D02*
X31988571Y-1718571D01*
X31988571Y-3147142D02*
X31845714Y-3218571D01*
X31560000Y-3218571D01*
X31417142Y-3147142D01*
X31345714Y-3075714D01*
X31274285Y-2932857D01*
X31274285Y-2504285D01*
X31345714Y-2361428D01*
X31417142Y-2290000D01*
X31560000Y-2218571D01*
X31845714Y-2218571D01*
X31988571Y-2290000D01*
X33274285Y-3147142D02*
X33131428Y-3218571D01*
X32845714Y-3218571D01*
X32702857Y-3147142D01*
X32631428Y-3004285D01*
X32631428Y-2432857D01*
X32702857Y-2290000D01*
X32845714Y-2218571D01*
X33131428Y-2218571D01*
X33274285Y-2290000D01*
X33345714Y-2432857D01*
X33345714Y-2575714D01*
X32631428Y-2718571D01*
X35131428Y-3218571D02*
X35131428Y-1718571D01*
X35131428Y-2290000D02*
X35274285Y-2218571D01*
X35560000Y-2218571D01*
X35702857Y-2290000D01*
X35774285Y-2361428D01*
X35845714Y-2504285D01*
X35845714Y-2932857D01*
X35774285Y-3075714D01*
X35702857Y-3147142D01*
X35560000Y-3218571D01*
X35274285Y-3218571D01*
X35131428Y-3147142D01*
X36345714Y-2218571D02*
X36702857Y-3218571D01*
X37060000Y-2218571D02*
X36702857Y-3218571D01*
X36560000Y-3575714D01*
X36488571Y-3647142D01*
X36345714Y-3718571D01*
X38631428Y-2218571D02*
X38988571Y-3218571D01*
X39345714Y-2218571D02*
X38988571Y-3218571D01*
X38845714Y-3575714D01*
X38774285Y-3647142D01*
X38631428Y-3718571D01*
X40560000Y-2218571D02*
X40560000Y-3218571D01*
X39917142Y-2218571D02*
X39917142Y-3004285D01*
X39988571Y-3147142D01*
X40131428Y-3218571D01*
X40345714Y-3218571D01*
X40488571Y-3147142D01*
X40560000Y-3075714D01*
X41274285Y-2218571D02*
X41274285Y-3218571D01*
X41274285Y-2361428D02*
X41345714Y-2290000D01*
X41488571Y-2218571D01*
X41702857Y-2218571D01*
X41845714Y-2290000D01*
X41917142Y-2432857D01*
X41917142Y-3218571D01*
X42631428Y-3218571D02*
X42631428Y-1718571D01*
X42774285Y-2647142D02*
X43202857Y-3218571D01*
X43202857Y-2218571D02*
X42631428Y-2790000D01*
D11*
%TO.C,*%
%TO.C,MCU1*%
X96026338Y-895806D02*
X95970533Y-1693857D01*
X95666513Y-1672598D01*
X95593166Y-1629281D01*
X95557821Y-1588621D01*
X95525133Y-1509959D01*
X95533105Y-1395951D01*
X95576422Y-1322604D01*
X95617082Y-1287259D01*
X95695745Y-1254571D01*
X95999764Y-1275830D01*
X95020472Y-1627422D02*
X94944467Y-1622107D01*
X94871119Y-1578790D01*
X94835774Y-1538130D01*
X94803087Y-1459468D01*
X94775714Y-1304801D01*
X94789001Y-1114789D01*
X94837633Y-965436D01*
X94880950Y-892089D01*
X94921610Y-856744D01*
X95000272Y-824056D01*
X95076277Y-829371D01*
X95149624Y-872688D01*
X95184969Y-913348D01*
X95217657Y-992010D01*
X95245030Y-1146677D01*
X95231743Y-1336690D01*
X95183111Y-1486042D01*
X95139794Y-1559390D01*
X95099134Y-1594735D01*
X95020472Y-1627422D01*
X94430235Y-784195D02*
X94278226Y-773566D01*
X94199563Y-806253D01*
X94158904Y-841599D01*
X94074927Y-950291D01*
X94026295Y-1099643D01*
X94005035Y-1403663D01*
X94037723Y-1482325D01*
X94073068Y-1522985D01*
X94146416Y-1566302D01*
X94298425Y-1576932D01*
X94377088Y-1544244D01*
X94417747Y-1508899D01*
X94461065Y-1435552D01*
X94474352Y-1245539D01*
X94441664Y-1166877D01*
X94406319Y-1126217D01*
X94332971Y-1082900D01*
X94180962Y-1072271D01*
X94102299Y-1104958D01*
X94061640Y-1140303D01*
X94018322Y-1213651D01*
X97206800Y21173704D02*
X97280147Y21130386D01*
X97394155Y21122414D01*
X97510819Y21152445D01*
X97592139Y21223135D01*
X97635456Y21296482D01*
X97684088Y21445834D01*
X97692061Y21559842D01*
X97664688Y21714509D01*
X97632000Y21793171D01*
X97561310Y21874491D01*
X97449960Y21920466D01*
X97373955Y21925780D01*
X97257290Y21895750D01*
X97216631Y21860405D01*
X97198029Y21594388D01*
X97350039Y21583758D01*
X96879923Y21960326D02*
X96824118Y21162275D01*
X96423894Y21992215D01*
X96368089Y21194164D01*
X96043870Y22018789D02*
X95988064Y21220738D01*
X95798052Y21234025D01*
X95686702Y21279999D01*
X95616012Y21361319D01*
X95583325Y21439981D01*
X95555952Y21594648D01*
X95563924Y21708656D01*
X95612556Y21858008D01*
X95655873Y21931355D01*
X95737193Y22002046D01*
X95853857Y22032076D01*
X96043870Y22018789D01*
X96735063Y9239444D02*
X96679258Y8441393D01*
X96375238Y8462652D01*
X96301891Y8505969D01*
X96266546Y8546629D01*
X96233858Y8625291D01*
X96241830Y8739299D01*
X96285147Y8812646D01*
X96325807Y8847991D01*
X96404470Y8880679D01*
X96708489Y8859420D01*
X95729197Y8507828D02*
X95653192Y8513143D01*
X95579844Y8556460D01*
X95544499Y8597120D01*
X95511812Y8675782D01*
X95484439Y8830449D01*
X95497726Y9020461D01*
X95546358Y9169814D01*
X95589675Y9243161D01*
X95630335Y9278506D01*
X95708997Y9311194D01*
X95785002Y9305879D01*
X95858349Y9262562D01*
X95893694Y9221902D01*
X95926382Y9143240D01*
X95953755Y8988573D01*
X95940468Y8798560D01*
X95891836Y8649208D01*
X95848519Y8575860D01*
X95807859Y8540515D01*
X95729197Y8507828D01*
X94741133Y8576920D02*
X95121158Y8550346D01*
X95185734Y8927713D01*
X95145074Y8892368D01*
X95066412Y8859680D01*
X94876400Y8872967D01*
X94803052Y8916284D01*
X94767707Y8956944D01*
X94735020Y9035607D01*
X94748306Y9225619D01*
X94791624Y9298966D01*
X94832284Y9334311D01*
X94910946Y9366999D01*
X95100958Y9353712D01*
X95174305Y9310395D01*
X95209651Y9269735D01*
X106666041Y13637407D02*
X106610236Y12839356D01*
X106306216Y12860615D01*
X106232869Y12903932D01*
X106197524Y12944592D01*
X106164836Y13023254D01*
X106172808Y13137262D01*
X106216125Y13210609D01*
X106256785Y13245954D01*
X106335448Y13278642D01*
X106639467Y13257383D01*
X105855502Y12968509D02*
X105814842Y12933164D01*
X105736180Y12900476D01*
X105546167Y12913763D01*
X105472820Y12957080D01*
X105437475Y12997740D01*
X105404787Y13076402D01*
X105410102Y13152407D01*
X105456077Y13263757D01*
X105943995Y13687898D01*
X105449963Y13722444D01*
X104900126Y12958939D02*
X104824121Y12964253D01*
X104750774Y13007571D01*
X104715429Y13048230D01*
X104682741Y13126893D01*
X104655368Y13281560D01*
X104668655Y13471572D01*
X104717287Y13620924D01*
X104760604Y13694272D01*
X104801264Y13729617D01*
X104879926Y13762305D01*
X104955931Y13756990D01*
X105029279Y13713673D01*
X105064624Y13673013D01*
X105097311Y13594350D01*
X105124684Y13439683D01*
X105111397Y13249671D01*
X105062765Y13100319D01*
X105019448Y13026971D01*
X104978788Y12991626D01*
X104900126Y12958939D01*
X105602953Y-1565468D02*
X105547148Y-2363519D01*
X105243128Y-2342260D01*
X105169781Y-2298943D01*
X105134436Y-2258283D01*
X105101748Y-2179621D01*
X105109720Y-2065613D01*
X105153037Y-1992266D01*
X105193697Y-1956921D01*
X105272360Y-1924233D01*
X105576379Y-1945492D01*
X104386875Y-1480431D02*
X104842904Y-1512320D01*
X104614889Y-1496376D02*
X104559084Y-2294427D01*
X104643061Y-2185734D01*
X104724381Y-2115044D01*
X104803043Y-2082357D01*
X103837038Y-2243936D02*
X103761033Y-2238622D01*
X103687686Y-2195304D01*
X103652341Y-2154645D01*
X103619653Y-2075982D01*
X103592280Y-1921315D01*
X103605567Y-1731303D01*
X103654199Y-1581951D01*
X103697516Y-1508603D01*
X103738176Y-1473258D01*
X103816838Y-1440570D01*
X103892843Y-1445885D01*
X103966191Y-1489202D01*
X104001536Y-1529862D01*
X104034223Y-1608525D01*
X104061596Y-1763192D01*
X104048309Y-1953204D01*
X103999677Y-2102556D01*
X103956360Y-2175904D01*
X103915700Y-2211249D01*
X103837038Y-2243936D01*
X106134497Y6035969D02*
X106078692Y5237918D01*
X105774672Y5259177D01*
X105701325Y5302494D01*
X105665980Y5343154D01*
X105633292Y5421816D01*
X105641264Y5535824D01*
X105684581Y5609171D01*
X105725241Y5644516D01*
X105803904Y5677204D01*
X106107923Y5655945D01*
X104918419Y6121006D02*
X105374448Y6089117D01*
X105146433Y6105061D02*
X105090628Y5307010D01*
X105174605Y5415703D01*
X105255925Y5486393D01*
X105334587Y5519080D01*
X104140567Y5373445D02*
X104520592Y5346871D01*
X104585168Y5724238D01*
X104544508Y5688893D01*
X104465846Y5656205D01*
X104275834Y5669492D01*
X104202486Y5712809D01*
X104167141Y5753469D01*
X104134454Y5832132D01*
X104147740Y6022144D01*
X104191058Y6095491D01*
X104231718Y6130836D01*
X104310380Y6163524D01*
X104500392Y6150237D01*
X104573739Y6106920D01*
X104609085Y6066260D01*
X105780134Y968344D02*
X105724329Y170293D01*
X105420309Y191552D01*
X105346962Y234869D01*
X105311617Y275529D01*
X105278929Y354191D01*
X105286901Y468199D01*
X105330218Y541546D01*
X105370878Y576891D01*
X105449541Y609579D01*
X105753560Y588320D01*
X104564056Y1053381D02*
X105020085Y1021492D01*
X104792070Y1037436D02*
X104736265Y239385D01*
X104820242Y348078D01*
X104901562Y418768D01*
X104980224Y451455D01*
X103824207Y303162D02*
X103976217Y292533D01*
X104054879Y325221D01*
X104095539Y360566D01*
X104179516Y469258D01*
X104228148Y618611D01*
X104249407Y922630D01*
X104216719Y1001292D01*
X104181374Y1041952D01*
X104108027Y1085269D01*
X103956017Y1095899D01*
X103877355Y1063211D01*
X103836695Y1027866D01*
X103793377Y954519D01*
X103780091Y764507D01*
X103812778Y685844D01*
X103848123Y645184D01*
X103921471Y601867D01*
X104073480Y591238D01*
X104152143Y623925D01*
X104192803Y659270D01*
X104236120Y732618D01*
X106665551Y21276049D02*
X106904994Y20877423D01*
X107121580Y21244160D02*
X107065775Y20446109D01*
X106761755Y20467368D01*
X106688408Y20510685D01*
X106653063Y20551345D01*
X106620375Y20630007D01*
X106628347Y20744015D01*
X106671665Y20817362D01*
X106712324Y20852707D01*
X106790987Y20885395D01*
X107095006Y20864136D01*
X106358874Y21259305D02*
X106247524Y21305280D01*
X106057512Y21318567D01*
X105978849Y21285879D01*
X105938190Y21250534D01*
X105894872Y21177187D01*
X105889558Y21101182D01*
X105922245Y21022520D01*
X105957590Y20981860D01*
X106030938Y20938543D01*
X106180290Y20889911D01*
X106253638Y20846593D01*
X106288983Y20805933D01*
X106321670Y20727271D01*
X106316356Y20651266D01*
X106273038Y20577919D01*
X106232379Y20542574D01*
X106153716Y20509886D01*
X105963704Y20523173D01*
X105852354Y20569148D01*
X105621682Y20547090D02*
X105165653Y20578978D01*
X105449473Y21361085D02*
X105393668Y20563034D01*
X97266608Y16840882D02*
X97210803Y16042831D01*
X96906783Y16064090D01*
X96833436Y16107407D01*
X96798091Y16148067D01*
X96765403Y16226729D01*
X96773375Y16340737D01*
X96816692Y16414084D01*
X96857352Y16449429D01*
X96936015Y16482117D01*
X97240034Y16460858D01*
X96260742Y16109266D02*
X96184737Y16114581D01*
X96111389Y16157898D01*
X96076044Y16198558D01*
X96043357Y16277220D01*
X96015984Y16431887D01*
X96029271Y16621899D01*
X96077903Y16771252D01*
X96121220Y16844599D01*
X96161880Y16879944D01*
X96240542Y16912632D01*
X96316547Y16907317D01*
X96389894Y16864000D01*
X96425239Y16823340D01*
X96457927Y16744678D01*
X96485300Y16590011D01*
X96472013Y16399998D01*
X96423381Y16250646D01*
X96380064Y16177298D01*
X96339404Y16141953D01*
X96260742Y16109266D01*
X95696020Y16225131D02*
X95655360Y16189786D01*
X95576698Y16157099D01*
X95386686Y16170386D01*
X95313338Y16213703D01*
X95277993Y16254363D01*
X95245305Y16333025D01*
X95250620Y16409030D01*
X95296595Y16520380D01*
X95784513Y16944520D01*
X95290481Y16979067D01*
X96380701Y4171819D02*
X96324896Y3373768D01*
X96020876Y3395027D01*
X95947529Y3438344D01*
X95912184Y3479004D01*
X95879496Y3557666D01*
X95887468Y3671674D01*
X95930785Y3745021D01*
X95971445Y3780366D01*
X96050108Y3813054D01*
X96354127Y3791795D01*
X95374835Y3440203D02*
X95298830Y3445518D01*
X95225482Y3488835D01*
X95190137Y3529495D01*
X95157450Y3608157D01*
X95130077Y3762824D01*
X95143364Y3952836D01*
X95191996Y4102189D01*
X95235313Y4175536D01*
X95275973Y4210881D01*
X95354635Y4243569D01*
X95430640Y4238254D01*
X95503987Y4194937D01*
X95539332Y4154277D01*
X95572020Y4075615D01*
X95599393Y3920948D01*
X95586106Y3730935D01*
X95537474Y3581583D01*
X95494157Y3508235D01*
X95453497Y3472890D01*
X95374835Y3440203D01*
X94842801Y3477406D02*
X94310766Y3514610D01*
X94708594Y4288744D01*
X107059605Y17900339D02*
X106849393Y18716992D01*
X106527571Y17937542D01*
X105856015Y18710079D02*
X105896675Y18745424D01*
X106013339Y18775454D01*
X106089344Y18770139D01*
X106200694Y18724165D01*
X106271384Y18642845D01*
X106304072Y18564183D01*
X106331445Y18409516D01*
X106323473Y18295508D01*
X106274841Y18146156D01*
X106231523Y18072808D01*
X106150204Y18002118D01*
X106033539Y17972088D01*
X105957534Y17977403D01*
X105846184Y18023377D01*
X105810839Y18064037D01*
X105057963Y18765884D02*
X105098623Y18801229D01*
X105215288Y18831259D01*
X105291293Y18825944D01*
X105402643Y18779970D01*
X105473333Y18698650D01*
X105506021Y18619988D01*
X105533393Y18465321D01*
X105525421Y18351313D01*
X105476789Y18201961D01*
X105433472Y18128614D01*
X105352152Y18057924D01*
X105235488Y18027893D01*
X105159483Y18033208D01*
X105048133Y18079183D01*
X105012788Y18119842D01*
X97975333Y26976133D02*
X97919528Y26178082D01*
X97615508Y26199341D01*
X97542161Y26242658D01*
X97506816Y26283318D01*
X97474128Y26361980D01*
X97482100Y26475988D01*
X97525417Y26549335D01*
X97566077Y26584680D01*
X97644740Y26617368D01*
X97948759Y26596109D01*
X96969467Y26244517D02*
X96893462Y26249832D01*
X96820114Y26293149D01*
X96784769Y26333809D01*
X96752082Y26412471D01*
X96724709Y26567138D01*
X96737996Y26757150D01*
X96786628Y26906503D01*
X96829945Y26979850D01*
X96870605Y27015195D01*
X96949267Y27047883D01*
X97025272Y27042568D01*
X97098619Y26999251D01*
X97133964Y26958591D01*
X97166652Y26879929D01*
X97194025Y26725262D01*
X97180738Y26535249D01*
X97132106Y26385897D01*
X97088789Y26312549D01*
X97048129Y26277204D01*
X96969467Y26244517D01*
X95999206Y27114318D02*
X96455235Y27082429D01*
X96227221Y27098373D02*
X96171416Y26300322D01*
X96255393Y26409014D01*
X96336712Y26479705D01*
X96415374Y26512392D01*
X96203519Y1638006D02*
X96147714Y839955D01*
X95843694Y861214D01*
X95770347Y904531D01*
X95735002Y945191D01*
X95702314Y1023853D01*
X95710286Y1137861D01*
X95753603Y1211208D01*
X95794263Y1246553D01*
X95872926Y1279241D01*
X96176945Y1257982D01*
X95197653Y906390D02*
X95121648Y911705D01*
X95048300Y955022D01*
X95012955Y995682D01*
X94980268Y1074344D01*
X94952895Y1229011D01*
X94966182Y1419023D01*
X95014814Y1568376D01*
X95058131Y1641723D01*
X95098791Y1677068D01*
X95177453Y1709756D01*
X95253458Y1704441D01*
X95326805Y1661124D01*
X95362150Y1620464D01*
X95394838Y1541802D01*
X95422211Y1387135D01*
X95408924Y1197122D01*
X95360292Y1047770D01*
X95316975Y974422D01*
X95276315Y939077D01*
X95197653Y906390D01*
X94499523Y1298902D02*
X94572870Y1255585D01*
X94608215Y1214925D01*
X94640903Y1136263D01*
X94638246Y1098260D01*
X94594928Y1024913D01*
X94554269Y989568D01*
X94475606Y956880D01*
X94323597Y967510D01*
X94250249Y1010827D01*
X94214904Y1051487D01*
X94182216Y1130149D01*
X94184874Y1168151D01*
X94228191Y1241499D01*
X94268851Y1276844D01*
X94347513Y1309532D01*
X94499523Y1298902D01*
X94578185Y1331590D01*
X94618845Y1366935D01*
X94662162Y1440282D01*
X94672792Y1592292D01*
X94640104Y1670954D01*
X94604759Y1711614D01*
X94531412Y1754931D01*
X94379402Y1765561D01*
X94300740Y1732873D01*
X94260080Y1697528D01*
X94216762Y1624181D01*
X94206133Y1472171D01*
X94238821Y1393509D01*
X94274166Y1352849D01*
X94347513Y1309532D01*
X96557882Y6705631D02*
X96502077Y5907580D01*
X96198057Y5928839D01*
X96124710Y5972156D01*
X96089365Y6012816D01*
X96056677Y6091478D01*
X96064649Y6205486D01*
X96107966Y6278833D01*
X96148626Y6314178D01*
X96227289Y6346866D01*
X96531308Y6325607D01*
X95552016Y5974015D02*
X95476011Y5979330D01*
X95402663Y6022647D01*
X95367318Y6063307D01*
X95334631Y6141969D01*
X95307258Y6296636D01*
X95320545Y6486648D01*
X95369177Y6636001D01*
X95412494Y6709348D01*
X95453154Y6744693D01*
X95531816Y6777381D01*
X95607821Y6772066D01*
X95681168Y6728749D01*
X95716513Y6688089D01*
X95749201Y6609427D01*
X95776574Y6454760D01*
X95763287Y6264747D01*
X95714655Y6115395D01*
X95671338Y6042047D01*
X95630678Y6006702D01*
X95552016Y5974015D01*
X94601955Y6040449D02*
X94753965Y6029820D01*
X94832627Y6062508D01*
X94873287Y6097853D01*
X94957264Y6206545D01*
X95005896Y6355898D01*
X95027155Y6659917D01*
X94994467Y6738579D01*
X94959122Y6779239D01*
X94885775Y6822556D01*
X94733765Y6833186D01*
X94655103Y6800498D01*
X94614443Y6765153D01*
X94571125Y6691806D01*
X94557839Y6501794D01*
X94590526Y6423131D01*
X94625871Y6382471D01*
X94699219Y6339154D01*
X94851228Y6328525D01*
X94929891Y6361212D01*
X94970551Y6396557D01*
X95013868Y6469905D01*
X106960596Y23037855D02*
X107033943Y22994537D01*
X107147951Y22986565D01*
X107264615Y23016596D01*
X107345935Y23087286D01*
X107389252Y23160633D01*
X107437884Y23309985D01*
X107445857Y23423993D01*
X107418484Y23578660D01*
X107385796Y23657322D01*
X107315106Y23738642D01*
X107203756Y23784617D01*
X107127751Y23789931D01*
X107011086Y23759901D01*
X106970427Y23724556D01*
X106951825Y23458539D01*
X107103835Y23447909D01*
X106633719Y23824477D02*
X106577914Y23026426D01*
X106177690Y23856366D01*
X106121885Y23058315D01*
X105797666Y23882940D02*
X105741860Y23084889D01*
X105551848Y23098176D01*
X105440498Y23144150D01*
X105369808Y23225470D01*
X105337121Y23304132D01*
X105309748Y23458799D01*
X105317720Y23572807D01*
X105366352Y23722159D01*
X105409669Y23795506D01*
X105490989Y23866197D01*
X105607653Y23896227D01*
X105797666Y23882940D01*
X106311678Y8569782D02*
X106255873Y7771731D01*
X105951853Y7792990D01*
X105878506Y7836307D01*
X105843161Y7876967D01*
X105810473Y7955629D01*
X105818445Y8069637D01*
X105861762Y8142984D01*
X105902422Y8178329D01*
X105981085Y8211017D01*
X106285104Y8189758D01*
X105095600Y8654819D02*
X105551629Y8622930D01*
X105323614Y8638874D02*
X105267809Y7840823D01*
X105351786Y7949516D01*
X105433106Y8020206D01*
X105511768Y8052893D01*
X104607682Y8230678D02*
X104681029Y8187361D01*
X104716374Y8146701D01*
X104749062Y8068039D01*
X104746405Y8030036D01*
X104703087Y7956689D01*
X104662428Y7921344D01*
X104583765Y7888656D01*
X104431756Y7899286D01*
X104358408Y7942603D01*
X104323063Y7983263D01*
X104290375Y8061925D01*
X104293033Y8099927D01*
X104336350Y8173275D01*
X104377010Y8208620D01*
X104455672Y8241308D01*
X104607682Y8230678D01*
X104686344Y8263366D01*
X104727004Y8298711D01*
X104770321Y8372058D01*
X104780951Y8524068D01*
X104748263Y8602730D01*
X104712918Y8643390D01*
X104639571Y8686707D01*
X104487561Y8697337D01*
X104408899Y8664649D01*
X104368239Y8629304D01*
X104324921Y8555957D01*
X104314292Y8403947D01*
X104346980Y8325285D01*
X104382325Y8284625D01*
X104455672Y8241308D01*
X106843223Y16171220D02*
X106787418Y15373169D01*
X106483398Y15394428D01*
X106410051Y15437745D01*
X106374706Y15478405D01*
X106342018Y15557067D01*
X106349990Y15671075D01*
X106393307Y15744422D01*
X106433967Y15779767D01*
X106512630Y15812455D01*
X106816649Y15791196D01*
X106032684Y15502322D02*
X105992024Y15466977D01*
X105913362Y15434289D01*
X105723349Y15447576D01*
X105650002Y15490893D01*
X105614657Y15531553D01*
X105581969Y15610215D01*
X105587284Y15686220D01*
X105633259Y15797570D01*
X106121177Y16221711D01*
X105627145Y16256257D01*
X104867096Y16309405D02*
X105323125Y16277516D01*
X105095111Y16293460D02*
X105039306Y15495409D01*
X105123283Y15604101D01*
X105204602Y15674792D01*
X105283264Y15707479D01*
X106488860Y11103595D02*
X106433055Y10305544D01*
X106129035Y10326803D01*
X106055688Y10370120D01*
X106020343Y10410780D01*
X105987655Y10489442D01*
X105995627Y10603450D01*
X106038944Y10676797D01*
X106079604Y10712142D01*
X106158267Y10744830D01*
X106462286Y10723571D01*
X105272782Y11188632D02*
X105728811Y11156743D01*
X105500796Y11172687D02*
X105444991Y10374636D01*
X105528968Y10483329D01*
X105610288Y10554019D01*
X105688950Y10586706D01*
X104892757Y11215206D02*
X104740748Y11225835D01*
X104662085Y11193148D01*
X104621426Y11157802D01*
X104537449Y11049110D01*
X104488817Y10899758D01*
X104467557Y10595738D01*
X104500245Y10517076D01*
X104535590Y10476416D01*
X104608938Y10433099D01*
X104760947Y10422469D01*
X104839610Y10455157D01*
X104880269Y10490502D01*
X104923587Y10563849D01*
X104936874Y10753862D01*
X104904186Y10832524D01*
X104868841Y10873184D01*
X104795493Y10916501D01*
X104643484Y10927130D01*
X104564821Y10894443D01*
X104524162Y10859098D01*
X104480844Y10785750D01*
X97798152Y24442320D02*
X97742347Y23644269D01*
X97438327Y23665528D01*
X97364980Y23708845D01*
X97329635Y23749505D01*
X97296947Y23828167D01*
X97304919Y23942175D01*
X97348236Y24015522D01*
X97388896Y24050867D01*
X97467559Y24083555D01*
X97771578Y24062296D01*
X96792286Y23710704D02*
X96716281Y23716019D01*
X96642933Y23759336D01*
X96607588Y23799996D01*
X96574901Y23878658D01*
X96547528Y24033325D01*
X96560815Y24223337D01*
X96609447Y24372690D01*
X96652764Y24446037D01*
X96693424Y24481382D01*
X96772086Y24514070D01*
X96848091Y24508755D01*
X96921438Y24465438D01*
X96956783Y24424778D01*
X96989471Y24346116D01*
X97016844Y24191449D01*
X97003557Y24001436D01*
X96954925Y23852084D01*
X96911608Y23778736D01*
X96870948Y23743391D01*
X96792286Y23710704D01*
X96032237Y23763852D02*
X95956232Y23769166D01*
X95882885Y23812484D01*
X95847540Y23853143D01*
X95814852Y23931806D01*
X95787479Y24086473D01*
X95800766Y24276485D01*
X95849398Y24425837D01*
X95892715Y24499185D01*
X95933375Y24534530D01*
X96012037Y24567218D01*
X96088042Y24561903D01*
X96161390Y24518586D01*
X96196735Y24477926D01*
X96229422Y24399263D01*
X96256795Y24244596D01*
X96243508Y24054584D01*
X96194876Y23905232D01*
X96151559Y23831884D01*
X96110899Y23796539D01*
X96032237Y23763852D01*
X107133921Y26335703D02*
X107373364Y25937076D01*
X107589950Y26303814D02*
X107534145Y25505763D01*
X107230126Y25527022D01*
X107156778Y25570339D01*
X107121433Y25610999D01*
X107088745Y25689661D01*
X107096718Y25803668D01*
X107140035Y25877016D01*
X107180695Y25912361D01*
X107259357Y25945049D01*
X107563376Y25923789D01*
X106813957Y26128947D02*
X106433933Y26155521D01*
X106905906Y26351647D02*
X106584084Y25572197D01*
X106373872Y26388850D01*
X106128055Y25604086D02*
X105993848Y26415424D01*
X105801977Y25856017D01*
X105689828Y26436683D01*
X105444011Y25651919D01*
X96912245Y11773257D02*
X96856440Y10975206D01*
X96552420Y10996465D01*
X96479073Y11039782D01*
X96443728Y11080442D01*
X96411040Y11159104D01*
X96419012Y11273112D01*
X96462329Y11346459D01*
X96502989Y11381804D01*
X96581652Y11414492D01*
X96885671Y11393233D01*
X95906379Y11041641D02*
X95830374Y11046956D01*
X95757026Y11090273D01*
X95721681Y11130933D01*
X95688994Y11209595D01*
X95661621Y11364262D01*
X95674908Y11554274D01*
X95723540Y11703627D01*
X95766857Y11776974D01*
X95807517Y11812319D01*
X95886179Y11845007D01*
X95962184Y11839692D01*
X96035531Y11796375D01*
X96070876Y11755715D01*
X96103564Y11677053D01*
X96130937Y11522386D01*
X96117650Y11332373D01*
X96069018Y11183021D01*
X96025701Y11109673D01*
X95985041Y11074328D01*
X95906379Y11041641D01*
X94974919Y11374093D02*
X95012123Y11906127D01*
X95143673Y11056786D02*
X95373546Y11613536D01*
X94879514Y11648082D01*
X97089426Y14307069D02*
X97033621Y13509018D01*
X96729601Y13530277D01*
X96656254Y13573594D01*
X96620909Y13614254D01*
X96588221Y13692916D01*
X96596193Y13806924D01*
X96639510Y13880271D01*
X96680170Y13915616D01*
X96758833Y13948304D01*
X97062852Y13927045D01*
X96083560Y13575453D02*
X96007555Y13580768D01*
X95934207Y13624085D01*
X95898862Y13664745D01*
X95866175Y13743407D01*
X95838802Y13898074D01*
X95852089Y14088086D01*
X95900721Y14237439D01*
X95944038Y14310786D01*
X95984698Y14346131D01*
X96063360Y14378819D01*
X96139365Y14373504D01*
X96212712Y14330187D01*
X96248057Y14289527D01*
X96280745Y14210865D01*
X96308118Y14056198D01*
X96294831Y13866185D01*
X96246199Y13716833D01*
X96202882Y13643485D01*
X96162222Y13608140D01*
X96083560Y13575453D01*
X95551526Y13612656D02*
X95057494Y13647202D01*
X95344770Y13932620D01*
X95230763Y13940592D01*
X95157415Y13983909D01*
X95122070Y14024569D01*
X95089383Y14103232D01*
X95102669Y14293244D01*
X95145987Y14366591D01*
X95186647Y14401936D01*
X95265309Y14434624D01*
X95493323Y14418680D01*
X95566671Y14375362D01*
X95602016Y14334703D01*
X97029618Y18639892D02*
X97102965Y18596574D01*
X97216973Y18588602D01*
X97333637Y18618633D01*
X97414957Y18689323D01*
X97458274Y18762670D01*
X97506906Y18912022D01*
X97514879Y19026030D01*
X97487506Y19180697D01*
X97454818Y19259359D01*
X97384128Y19340679D01*
X97272778Y19386654D01*
X97196773Y19391968D01*
X97080108Y19361938D01*
X97039449Y19326593D01*
X97020847Y19060576D01*
X97172857Y19049946D01*
X96702741Y19426514D02*
X96646936Y18628463D01*
X96246712Y19458403D01*
X96190907Y18660352D01*
X95866688Y19484977D02*
X95810882Y18686926D01*
X95620870Y18700213D01*
X95509520Y18746187D01*
X95438830Y18827507D01*
X95406143Y18906169D01*
X95378770Y19060836D01*
X95386742Y19174844D01*
X95435374Y19324196D01*
X95478691Y19397543D01*
X95560011Y19468234D01*
X95676675Y19498264D01*
X95866688Y19484977D01*
X105957315Y3502157D02*
X105901510Y2704106D01*
X105597490Y2725365D01*
X105524143Y2768682D01*
X105488798Y2809342D01*
X105456110Y2888004D01*
X105464082Y3002012D01*
X105507399Y3075359D01*
X105548059Y3110704D01*
X105626722Y3143392D01*
X105930741Y3122133D01*
X104741237Y3587194D02*
X105197266Y3555305D01*
X104969251Y3571249D02*
X104913446Y2773198D01*
X104997423Y2881891D01*
X105078743Y2952581D01*
X105157405Y2985268D01*
X104019989Y3102993D02*
X104057193Y3635027D01*
X104188743Y2785686D02*
X104418616Y3342436D01*
X103924584Y3376982D01*
%TO.C,G\u002A\u002A\u002A*%
G36*
X97815780Y38514556D02*
G01*
X97850845Y39853976D01*
X97954989Y41073644D01*
X98126634Y42166864D01*
X98364204Y43126937D01*
X98666122Y43947167D01*
X99030810Y44620855D01*
X99350386Y45032252D01*
X99797757Y45437813D01*
X100238773Y45675078D01*
X100676689Y45744810D01*
X101114759Y45647773D01*
X101380637Y45508802D01*
X101791561Y45153739D01*
X102143576Y44656645D01*
X102428388Y44037077D01*
X102637702Y43314597D01*
X102763225Y42508763D01*
X102786808Y42192693D01*
X102771421Y41210600D01*
X102622032Y40298856D01*
X102346342Y39468332D01*
X101952055Y38729899D01*
X101446874Y38094427D01*
X100838501Y37572789D01*
X100134640Y37175853D01*
X99342992Y36914493D01*
X99001114Y36849988D01*
X98593785Y36785290D01*
X98352682Y36732611D01*
X98276069Y36682441D01*
X98362214Y36625265D01*
X98609382Y36551572D01*
X98932194Y36471858D01*
X99828238Y36194796D01*
X100610864Y35823957D01*
X101268965Y35366892D01*
X101791436Y34831156D01*
X102132887Y34295259D01*
X102333147Y33738739D01*
X102400739Y33164421D01*
X102338977Y32608020D01*
X102151178Y32105253D01*
X101896455Y31748376D01*
X101506045Y31443031D01*
X101041808Y31254835D01*
X100548671Y31192525D01*
X100071562Y31264836D01*
X99857558Y31351898D01*
X99430872Y31660752D01*
X99044889Y32127441D01*
X98702926Y32744644D01*
X98408299Y33505040D01*
X98164324Y34401310D01*
X97974318Y35426133D01*
X97956644Y35547886D01*
X97890999Y35946665D01*
X97845999Y36118861D01*
X98241594Y36118861D01*
X98256543Y35876817D01*
X98298272Y35540074D01*
X98361149Y35143785D01*
X98439540Y34723100D01*
X98527814Y34313174D01*
X98620336Y33949158D01*
X98630334Y33914108D01*
X98911202Y33107897D01*
X99242451Y32456715D01*
X99622402Y31963253D01*
X100049376Y31630202D01*
X100059447Y31624609D01*
X100354602Y31539695D01*
X100724728Y31540309D01*
X101101787Y31621304D01*
X101329207Y31720671D01*
X101693183Y32020432D01*
X101943676Y32430969D01*
X102066818Y32926126D01*
X102077336Y33131701D01*
X101994658Y33716313D01*
X101754233Y34277494D01*
X101367471Y34799510D01*
X100845782Y35266628D01*
X100266004Y35629367D01*
X99971632Y35766293D01*
X99618107Y35904332D01*
X99242319Y36032424D01*
X98881163Y36139508D01*
X98571529Y36214523D01*
X98350312Y36246409D01*
X98259058Y36231053D01*
X98241594Y36118861D01*
X97845999Y36118861D01*
X97826791Y36192360D01*
X97759242Y36301109D01*
X97731114Y36309886D01*
X97660983Y36249921D01*
X97596045Y36059269D01*
X97531525Y35721794D01*
X97505583Y35547886D01*
X97321792Y34509201D01*
X97083662Y33598255D01*
X96794511Y32822366D01*
X96457655Y32188856D01*
X96076410Y31705045D01*
X95654093Y31378253D01*
X95604669Y31351898D01*
X95177701Y31218284D01*
X94697832Y31202937D01*
X94233528Y31306035D01*
X94132780Y31348069D01*
X93673353Y31641747D01*
X93345295Y32038377D01*
X93146474Y32541694D01*
X93074762Y33155432D01*
X93074447Y33203310D01*
X93081701Y33259267D01*
X93378622Y33259267D01*
X93416429Y32740264D01*
X93589743Y32283692D01*
X93867181Y31931436D01*
X94233743Y31679547D01*
X94649077Y31542024D01*
X95072827Y31532864D01*
X95428151Y31645995D01*
X95834880Y31951202D01*
X96201335Y32418077D01*
X96525478Y33043331D01*
X96805274Y33823673D01*
X96831626Y33913187D01*
X96924350Y34270413D01*
X97013419Y34677275D01*
X97093200Y35098633D01*
X97158061Y35499349D01*
X97202368Y35844283D01*
X97220491Y36098295D01*
X97206794Y36226248D01*
X97203169Y36231053D01*
X97087022Y36244905D01*
X96850858Y36206154D01*
X96531569Y36125861D01*
X96166047Y36015085D01*
X95791187Y35884887D01*
X95443879Y35746328D01*
X95196223Y35629367D01*
X94595022Y35247543D01*
X94103700Y34800959D01*
X93731219Y34308277D01*
X93486539Y33788159D01*
X93378622Y33259267D01*
X93081701Y33259267D01*
X93156221Y33834113D01*
X93394850Y34426789D01*
X93780293Y34971840D01*
X94302510Y35459769D01*
X94951460Y35881078D01*
X95717102Y36226272D01*
X96530033Y36471858D01*
X96908361Y36566271D01*
X97127092Y36636340D01*
X97184492Y36691579D01*
X97078828Y36741500D01*
X97049691Y36747330D01*
X97674669Y36747330D01*
X97686291Y36696996D01*
X97731114Y36690886D01*
X97800804Y36721864D01*
X97787558Y36747330D01*
X97687078Y36757463D01*
X97674669Y36747330D01*
X97049691Y36747330D01*
X96808365Y36795617D01*
X96461114Y36849988D01*
X95636287Y37053677D01*
X94896145Y37397319D01*
X94248389Y37870043D01*
X93700723Y38460977D01*
X93260848Y39159251D01*
X92936469Y39953994D01*
X92735287Y40834336D01*
X92665006Y41789404D01*
X92665043Y41790853D01*
X93000054Y41790853D01*
X93047007Y41045888D01*
X93177321Y40320301D01*
X93394178Y39639421D01*
X93544411Y39307072D01*
X93922802Y38726387D01*
X94430718Y38192386D01*
X95028922Y37737824D01*
X95678179Y37395457D01*
X95957113Y37292851D01*
X96213426Y37227938D01*
X96547169Y37164662D01*
X96761446Y37133112D01*
X97265447Y37069138D01*
X97342215Y37536179D01*
X97368998Y37848200D01*
X97373301Y38306317D01*
X97355329Y38888818D01*
X97324214Y39442552D01*
X97209201Y40732042D01*
X97044176Y41861469D01*
X96828518Y42832743D01*
X96561601Y43647773D01*
X96242804Y44308467D01*
X95871504Y44816734D01*
X95454516Y45169789D01*
X95053224Y45361364D01*
X94687544Y45395750D01*
X94334229Y45274529D01*
X94290754Y45249111D01*
X93904352Y44919803D01*
X93582222Y44457894D01*
X93327546Y43888716D01*
X93143505Y43237596D01*
X93033280Y42529865D01*
X93000054Y41790853D01*
X92665043Y41790853D01*
X92675419Y42192693D01*
X92761433Y42986731D01*
X92924627Y43703274D01*
X93155654Y44330808D01*
X93445167Y44857817D01*
X93783821Y45272786D01*
X94162269Y45564199D01*
X94571166Y45720540D01*
X95001165Y45730294D01*
X95431125Y45588022D01*
X95916732Y45247155D01*
X96346542Y44752008D01*
X96718592Y44108845D01*
X97030920Y43323936D01*
X97281563Y42403545D01*
X97468558Y41353939D01*
X97589943Y40181387D01*
X97643756Y38892153D01*
X97646447Y38514556D01*
X97651434Y37963024D01*
X97665881Y37538639D01*
X97689022Y37254114D01*
X97720086Y37122159D01*
X97731114Y37114219D01*
X97764460Y37196697D01*
X97790119Y37435654D01*
X97807322Y37818380D01*
X97813887Y38241162D01*
X98087945Y38241162D01*
X98092077Y37811361D01*
X98105569Y37611822D01*
X98164772Y37058991D01*
X98688776Y37130033D01*
X99026348Y37184703D01*
X99343539Y37250652D01*
X99509114Y37294846D01*
X100162292Y37576886D01*
X100783677Y37985765D01*
X101333382Y38488162D01*
X101771522Y39050756D01*
X101917816Y39307072D01*
X102181575Y39954188D01*
X102357115Y40659364D01*
X102447616Y41397271D01*
X102456261Y42142578D01*
X102386230Y42869956D01*
X102240706Y43554075D01*
X102022869Y44169607D01*
X101735902Y44691221D01*
X101382985Y45093588D01*
X101171473Y45249111D01*
X100818075Y45389247D01*
X100455155Y45373971D01*
X100059464Y45201698D01*
X100007711Y45169789D01*
X99605451Y44822400D01*
X99241435Y44319751D01*
X98920726Y43672633D01*
X98648385Y42891837D01*
X98429474Y41988153D01*
X98373507Y41686219D01*
X98301583Y41200769D01*
X98236027Y40628668D01*
X98179361Y40008287D01*
X98134111Y39377995D01*
X98102797Y38776164D01*
X98087945Y38241162D01*
X97813887Y38241162D01*
X97815300Y38332162D01*
X97815780Y38514556D01*
G37*
%TO.C,T1*%
X95423744Y-4905443D02*
X95224938Y-7748501D01*
X98715705Y-5135640D02*
X102007667Y-5365836D01*
X98715705Y-5135640D02*
X95423744Y-4905443D01*
X95224938Y-7748501D02*
X101808861Y-8208893D01*
X100660955Y-5271665D02*
X96770455Y-4999614D01*
X101808861Y-8208893D02*
X102007667Y-5365836D01*
%TO.C,MCU1*%
X108192456Y27171996D02*
X108015275Y24638183D01*
X108192456Y27171996D02*
X110726269Y26994814D01*
X90863403Y-2170668D02*
X108600092Y-3410938D01*
X108015275Y24638183D02*
X110549088Y24461001D01*
X108600092Y-3410938D02*
X110903451Y29528627D01*
X110903451Y29528627D02*
X93166762Y30768897D01*
X93166762Y30768897D02*
X90863403Y-2170668D01*
%TD*%
D12*
%TO.C,*%
X103561872Y28758875D03*
X100329764Y28984885D03*
%TD*%
D13*
%TO.C,MCU1*%
X109370772Y25816498D03*
D12*
X109193591Y23282686D03*
X109016409Y20748873D03*
X108839228Y18215060D03*
X108662046Y15681248D03*
X108484865Y13147435D03*
X108307683Y10613622D03*
X108130502Y8079810D03*
X107953320Y5545997D03*
X107776139Y3012184D03*
X107598958Y478372D03*
X107421776Y-2055441D03*
X94167896Y26879587D03*
X93990714Y24345774D03*
X93813533Y21811962D03*
X93636352Y19278149D03*
X93459170Y16744336D03*
X93281989Y14210524D03*
X93104807Y11676711D03*
X92927626Y9142898D03*
X92750444Y6609086D03*
X92573263Y4075273D03*
X92396081Y1541460D03*
X92218900Y-992352D03*
%TD*%
M02*
