M48
; DRILL file {KiCad (6.0.2)} date Sun Mar 13 23:04:31 2022
; FORMAT={-:-/ absolute / inch / decimal}
; #@! TF.CreationDate,2022-03-13T23:04:31-07:00
; #@! TF.GenerationSoftware,Kicad,Pcbnew,(6.0.2)
; #@! TF.FileFunction,Plated,1,2,PTH
FMAT,2
INCH
; #@! TA.AperFunction,Plated,PTH,ComponentDrill
T1C0.0430
; #@! TA.AperFunction,Plated,PTH,ComponentDrill
T2C0.0500
%
G90
G05
T1
X3.6307Y-0.0391
X3.6376Y0.0607
X3.6446Y0.1604
X3.6516Y0.2602
X3.6586Y0.36
X3.6655Y0.4597
X3.6725Y0.5595
X3.6795Y0.6592
X3.6865Y0.759
X3.6934Y0.8587
X3.7004Y0.9585
X3.7074Y1.0583
X3.95Y1.1411
X4.0772Y1.1322
X4.2292Y-0.0809
X4.2362Y0.0188
X4.2432Y0.1186
X4.2501Y0.2183
X4.2571Y0.3181
X4.2641Y0.4179
X4.2711Y0.5176
X4.278Y0.6174
X4.285Y0.7171
X4.292Y0.8169
X4.299Y0.9166
X4.3059Y1.0164
T2
X-0.2483Y0.579
X-0.1831Y-0.1662
X-0.045Y0.5138
X-0.045Y0.5138
X0.0202Y-0.2314
X0.0202Y-0.2314
X0.1439Y0.6133
X0.2091Y-0.1319
X0.5938Y1.6824
X0.5938Y0.9344
X0.5938Y0.1863
X0.7907Y1.5997
X0.7907Y1.5997
X0.7907Y0.8517
X0.7907Y0.8517
X0.7907Y0.1037
X0.7907Y0.1037
X0.9875Y1.6824
X0.9875Y0.9344
X0.9875Y0.1863
X1.3812Y1.8005
X1.3812Y1.0525
X1.3812Y0.3044
X1.5781Y1.7178
X1.5781Y1.7178
X1.5781Y0.9698
X1.5781Y0.9698
X1.5781Y0.2218
X1.5781Y0.2218
X1.7749Y1.8005
X1.7749Y1.0525
X1.7749Y0.3044
X2.1635Y0.1539
X2.1896Y0.9015
X2.2157Y1.6491
X2.3574Y0.0644
X2.3574Y0.0644
X2.3835Y0.812
X2.3835Y0.812
X2.4096Y1.5596
X2.4096Y1.5596
X2.557Y0.1402
X2.5831Y0.8878
X2.6092Y1.6353
X2.8494Y-0.7085
X2.954Y0.0939
X3.0062Y0.8401
X3.0247Y-0.8303
X3.0247Y-0.8303
X3.0584Y1.5863
X3.1446Y-0.0023
X3.1446Y-0.0023
X3.1968Y0.7439
X3.1968Y0.7439
X3.2345Y-0.7904
X3.249Y1.4901
X3.249Y1.4901
X3.3468Y0.0664
X3.399Y0.8126
X3.4511Y1.5588
X3.6046Y-0.8949
X3.771Y-1.0286
X3.771Y-1.0286
X3.983Y-1.0034
T0
M30
