%TF.GenerationSoftware,KiCad,Pcbnew,(6.0.2)*%
%TF.CreationDate,2022-03-13T23:04:35-07:00*%
%TF.ProjectId,polished,706f6c69-7368-4656-942e-6b696361645f,v1.0.0*%
%TF.SameCoordinates,Original*%
%TF.FileFunction,Soldermask,Bot*%
%TF.FilePolarity,Negative*%
%FSLAX46Y46*%
G04 Gerber Fmt 4.6, Leading zero omitted, Abs format (unit mm)*
G04 Created by KiCad (PCBNEW (6.0.2)) date 2022-03-13 23:04:35*
%MOMM*%
%LPD*%
G01*
G04 APERTURE LIST*
G04 Aperture macros list*
%AMRoundRect*
0 Rectangle with rounded corners*
0 $1 Rounding radius*
0 $2 $3 $4 $5 $6 $7 $8 $9 X,Y pos of 4 corners*
0 Add a 4 corners polygon primitive as box body*
4,1,4,$2,$3,$4,$5,$6,$7,$8,$9,$2,$3,0*
0 Add four circle primitives for the rounded corners*
1,1,$1+$1,$2,$3*
1,1,$1+$1,$4,$5*
1,1,$1+$1,$6,$7*
1,1,$1+$1,$8,$9*
0 Add four rect primitives between the rounded corners*
20,1,$1+$1,$2,$3,$4,$5,0*
20,1,$1+$1,$4,$5,$6,$7,0*
20,1,$1+$1,$6,$7,$8,$9,0*
20,1,$1+$1,$8,$9,$2,$3,0*%
G04 Aperture macros list end*
%ADD10C,1.100000*%
%ADD11C,1.852600*%
%ADD12C,3.529000*%
%ADD13C,1.801800*%
%ADD14C,2.132000*%
%ADD15C,3.100000*%
%ADD16RoundRect,0.050000X-1.300000X-1.300000X1.300000X-1.300000X1.300000X1.300000X-1.300000X1.300000X0*%
%ADD17RoundRect,0.050000X-0.450000X-0.850000X0.450000X-0.850000X0.450000X0.850000X-0.450000X0.850000X0*%
%ADD18RoundRect,0.050000X-1.607969X-0.891312X0.891312X-1.607969X1.607969X0.891312X-0.891312X1.607969X0*%
%ADD19RoundRect,0.050000X-1.344577X-1.253839X1.253839X-1.344577X1.344577X1.253839X-1.253839X1.344577X0*%
%ADD20RoundRect,0.050000X-0.813038X0.935293X-0.935293X-0.813038X0.813038X-0.935293X0.935293X0.813038X0*%
%ADD21RoundRect,0.050000X-1.181751X-1.408356X1.408356X-1.181751X1.181751X1.408356X-1.408356X1.181751X0*%
%ADD22RoundRect,0.050000X-1.541877X-1.001307X1.001307X-1.541877X1.541877X1.001307X-1.001307X1.541877X0*%
%ADD23RoundRect,0.050000X-1.387517X-1.206150X1.206150X-1.387517X1.387517X1.206150X-1.206150X1.387517X0*%
G04 APERTURE END LIST*
D10*
%TO.C,T1*%
X97125188Y-6377716D03*
X100117880Y-6586986D03*
%TD*%
D11*
%TO.C,*%
X103561872Y28758875D03*
X100329764Y28984885D03*
%TD*%
D12*
%TO.C,S22*%
X61408920Y45509647D03*
D13*
X55912270Y45701594D03*
X66905570Y45317700D03*
D14*
X66273256Y41537464D03*
X56279348Y41886459D03*
X61203013Y39613241D03*
X61203013Y39613241D03*
%TD*%
D13*
%TO.C,S30*%
X72675193Y-14175714D03*
X83434817Y-16462742D03*
D12*
X78055005Y-15319228D03*
D14*
X82155679Y-20075747D03*
X72374203Y-17996629D03*
X76828326Y-21090299D03*
X76828326Y-21090299D03*
%TD*%
D12*
%TO.C,S10*%
X20082739Y46532796D03*
D13*
X25582739Y46532796D03*
X14582739Y46532796D03*
D14*
X15082739Y42732796D03*
X25082739Y42732796D03*
X20082739Y40632796D03*
X20082739Y40632796D03*
%TD*%
D12*
%TO.C,S6*%
X20082739Y8532796D03*
D13*
X14582739Y8532796D03*
X25582739Y8532796D03*
D14*
X15082739Y4732796D03*
X25082739Y4732796D03*
X20082739Y2632796D03*
X20082739Y2632796D03*
%TD*%
D15*
%TO.C,S13*%
X40082739Y36482796D03*
D13*
X45582739Y30532796D03*
X34582739Y30532796D03*
D15*
X40082739Y36482796D03*
X35082739Y34282796D03*
X45082739Y34282796D03*
D12*
X40082739Y30532796D03*
D16*
X36807739Y36482796D03*
X48357739Y34282796D03*
%TD*%
D17*
%TO.C,*%
X105255335Y-6946231D03*
X108647053Y-7183403D03*
%TD*%
D13*
%TO.C,S31*%
X92123107Y-18939605D03*
D12*
X97410046Y-20455610D03*
D13*
X102696985Y-21971615D03*
D15*
X99050088Y-14736103D03*
X99050088Y-14736103D03*
X103249995Y-18229065D03*
X93637378Y-15472692D03*
D18*
X95901956Y-13833391D03*
X106398127Y-19131778D03*
%TD*%
D15*
%TO.C,S17*%
X55216658Y11455009D03*
X60290391Y13479171D03*
D12*
X60082739Y7532796D03*
D15*
X65210566Y11106014D03*
D13*
X54586089Y7724743D03*
D15*
X60290391Y13479171D03*
D13*
X65579389Y7340849D03*
D19*
X57017386Y13593467D03*
X68483571Y10991718D03*
%TD*%
D20*
%TO.C,MCU1*%
X109370772Y25816498D03*
D11*
X109193591Y23282686D03*
X109016409Y20748873D03*
X108839228Y18215060D03*
X108662046Y15681248D03*
X108484865Y13147435D03*
X108307683Y10613622D03*
X108130502Y8079810D03*
X107953320Y5545997D03*
X107776139Y3012184D03*
X107598958Y478372D03*
X107421776Y-2055441D03*
X94167896Y26879587D03*
X93990714Y24345774D03*
X93813533Y21811962D03*
X93636352Y19278149D03*
X93459170Y16744336D03*
X93281989Y14210524D03*
X93104807Y11676711D03*
X92927626Y9142898D03*
X92750444Y6609086D03*
X92573263Y4075273D03*
X92396081Y1541460D03*
X92218900Y-992352D03*
%TD*%
D13*
%TO.C,S20*%
X66242479Y26329275D03*
D12*
X60745829Y26521222D03*
D13*
X55249179Y26713169D03*
D14*
X55616257Y22898034D03*
X65610165Y22549039D03*
X60539922Y20624816D03*
X60539922Y20624816D03*
%TD*%
D13*
%TO.C,S3*%
X-7135030Y18448342D03*
D15*
X-2174536Y24855057D03*
X-6963767Y22227650D03*
D13*
X3823112Y19407056D03*
D15*
X-2174536Y24855057D03*
D12*
X-1655959Y18927699D03*
D15*
X2998180Y23099208D03*
D21*
X-5437073Y24569622D03*
X6260718Y23384643D03*
%TD*%
D15*
%TO.C,S1*%
X-518577Y5927358D03*
X4654139Y4171509D03*
D13*
X-5479071Y-479357D03*
X5479071Y479357D03*
D12*
X0Y0D03*
D15*
X-5307808Y3299951D03*
X-518577Y5927358D03*
D21*
X-3781114Y5641923D03*
X7916677Y4456944D03*
%TD*%
D15*
%TO.C,S21*%
X56542839Y49431860D03*
X66536747Y49082865D03*
X61616572Y51456022D03*
D13*
X66905570Y45317700D03*
D12*
X61408920Y45509647D03*
D15*
X61616572Y51456022D03*
D13*
X55912270Y45701594D03*
D19*
X58343567Y51570318D03*
X69809752Y48968569D03*
%TD*%
D12*
%TO.C,S16*%
X40082739Y49532796D03*
D13*
X34582739Y49532796D03*
X45582739Y49532796D03*
D14*
X45082739Y45732796D03*
X35082739Y45732796D03*
X40082739Y43632796D03*
X40082739Y43632796D03*
%TD*%
D12*
%TO.C,S18*%
X60082739Y7532796D03*
D13*
X54586089Y7724743D03*
X65579389Y7340849D03*
D14*
X64947075Y3560613D03*
X54953167Y3909608D03*
X59876832Y1636390D03*
X59876832Y1636390D03*
%TD*%
D12*
%TO.C,S19*%
X60745829Y26521222D03*
D13*
X66242479Y26329275D03*
D15*
X65873656Y30094440D03*
D13*
X55249179Y26713169D03*
D15*
X60953481Y32467597D03*
X55879748Y30443435D03*
X60953481Y32467597D03*
D19*
X57680476Y32581893D03*
X69146661Y29980144D03*
%TD*%
D15*
%TO.C,S29*%
X83725412Y-12690733D03*
X73943936Y-10611616D03*
D12*
X78055005Y-15319228D03*
D13*
X72675193Y-14175714D03*
D15*
X79292080Y-9499250D03*
X79292080Y-9499250D03*
D13*
X83434817Y-16462742D03*
D22*
X76088646Y-8818339D03*
X86928845Y-13371644D03*
%TD*%
D13*
%TO.C,S23*%
X74798902Y6210351D03*
D12*
X80285504Y5826690D03*
D15*
X80700555Y11762196D03*
X75559271Y9916338D03*
X80700555Y11762196D03*
D13*
X85772106Y5443029D03*
D15*
X85534911Y9218773D03*
D23*
X77433533Y11990649D03*
X88801933Y8990320D03*
%TD*%
D13*
%TO.C,S9*%
X14582739Y46532796D03*
X25582739Y46532796D03*
D15*
X15082739Y50282796D03*
X20082739Y52482796D03*
D12*
X20082739Y46532796D03*
D15*
X20082739Y52482796D03*
X25082739Y50282796D03*
D16*
X16807739Y52482796D03*
X28357739Y50282796D03*
%TD*%
D13*
%TO.C,S11*%
X45582739Y11532796D03*
D15*
X35082739Y15282796D03*
X40082739Y17482796D03*
D12*
X40082739Y11532796D03*
D15*
X45082739Y15282796D03*
D13*
X34582739Y11532796D03*
D15*
X40082739Y17482796D03*
D16*
X36807739Y17482796D03*
X48357739Y15282796D03*
%TD*%
D12*
%TO.C,S4*%
X-1655959Y18927699D03*
D13*
X-7135030Y18448342D03*
X3823112Y19407056D03*
D14*
X3656206Y15577938D03*
X-6305741Y14706380D03*
X-1141740Y13050150D03*
X-1141740Y13050150D03*
%TD*%
D15*
%TO.C,S27*%
X83351300Y49669630D03*
X83351300Y49669630D03*
D13*
X77449647Y44117785D03*
D15*
X78210016Y47823772D03*
X88185656Y47126207D03*
D12*
X82936249Y43734124D03*
D13*
X88422851Y43350463D03*
D23*
X80084278Y49898083D03*
X91452678Y46897754D03*
%TD*%
D13*
%TO.C,S12*%
X45582739Y11532796D03*
D12*
X40082739Y11532796D03*
D13*
X34582739Y11532796D03*
D14*
X35082739Y7732796D03*
X45082739Y7732796D03*
X40082739Y5632796D03*
X40082739Y5632796D03*
%TD*%
D13*
%TO.C,S5*%
X14582739Y8532796D03*
D12*
X20082739Y8532796D03*
D15*
X20082739Y14482796D03*
X15082739Y12282796D03*
D13*
X25582739Y8532796D03*
D15*
X25082739Y12282796D03*
X20082739Y14482796D03*
D16*
X16807739Y14482796D03*
X28357739Y12282796D03*
%TD*%
D13*
%TO.C,S2*%
X-5479071Y-479357D03*
D12*
X0Y0D03*
D13*
X5479071Y479357D03*
D14*
X5312165Y-3349761D03*
X-4649782Y-4221319D03*
X514219Y-5877549D03*
X514219Y-5877549D03*
%TD*%
D13*
%TO.C,S26*%
X87097479Y24396746D03*
D12*
X81610877Y24780407D03*
D13*
X76124275Y25164068D03*
D14*
X76357982Y21338446D03*
X86333623Y20640881D03*
X81199314Y18894779D03*
X81199314Y18894779D03*
%TD*%
D13*
%TO.C,S14*%
X34582739Y30532796D03*
D12*
X40082739Y30532796D03*
D13*
X45582739Y30532796D03*
D14*
X45082739Y26732796D03*
X35082739Y26732796D03*
X40082739Y24632796D03*
X40082739Y24632796D03*
%TD*%
D12*
%TO.C,S8*%
X20082739Y27532796D03*
D13*
X25582739Y27532796D03*
X14582739Y27532796D03*
D14*
X15082739Y23732796D03*
X25082739Y23732796D03*
X20082739Y21632796D03*
X20082739Y21632796D03*
%TD*%
D12*
%TO.C,S28*%
X82936249Y43734124D03*
D13*
X88422851Y43350463D03*
X77449647Y44117785D03*
D14*
X87658995Y39594598D03*
X77683354Y40292163D03*
X82524686Y37848496D03*
X82524686Y37848496D03*
%TD*%
D13*
%TO.C,S32*%
X102696985Y-21971615D03*
X92123107Y-18939605D03*
D12*
X97410046Y-20455610D03*
D14*
X101168933Y-25486591D03*
X91556317Y-22730218D03*
X95783786Y-26127054D03*
X95783786Y-26127054D03*
%TD*%
D12*
%TO.C,S7*%
X20082739Y27532796D03*
D15*
X15082739Y31282796D03*
X20082739Y33482796D03*
X20082739Y33482796D03*
D13*
X25582739Y27532796D03*
D15*
X25082739Y31282796D03*
D13*
X14582739Y27532796D03*
D16*
X16807739Y33482796D03*
X28357739Y31282796D03*
%TD*%
D15*
%TO.C,S25*%
X82025928Y30715913D03*
X86860284Y28172490D03*
D13*
X76124275Y25164068D03*
D15*
X76884644Y28870055D03*
D13*
X87097479Y24396746D03*
D12*
X81610877Y24780407D03*
D15*
X82025928Y30715913D03*
D23*
X78758906Y30944366D03*
X90127306Y27944037D03*
%TD*%
D12*
%TO.C,S24*%
X80285504Y5826690D03*
D13*
X74798902Y6210351D03*
X85772106Y5443029D03*
D14*
X75032609Y2384729D03*
X85008250Y1687164D03*
X79873941Y-58938D03*
X79873941Y-58938D03*
%TD*%
D15*
%TO.C,S15*%
X45082739Y53282796D03*
D13*
X34582739Y49532796D03*
D15*
X40082739Y55482796D03*
D13*
X45582739Y49532796D03*
D15*
X40082739Y55482796D03*
D12*
X40082739Y49532796D03*
D15*
X35082739Y53282796D03*
D16*
X36807739Y55482796D03*
X48357739Y53282796D03*
%TD*%
M02*
