%TF.GenerationSoftware,KiCad,Pcbnew,(6.0.2)*%
%TF.CreationDate,2022-03-14T22:31:34-07:00*%
%TF.ProjectId,polished,706f6c69-7368-4656-942e-6b696361645f,v1.0.0*%
%TF.SameCoordinates,Original*%
%TF.FileFunction,Paste,Top*%
%TF.FilePolarity,Positive*%
%FSLAX46Y46*%
G04 Gerber Fmt 4.6, Leading zero omitted, Abs format (unit mm)*
G04 Created by KiCad (PCBNEW (6.0.2)) date 2022-03-14 22:31:34*
%MOMM*%
%LPD*%
G01*
G04 APERTURE LIST*
G04 Aperture macros list*
%AMRotRect*
0 Rectangle, with rotation*
0 The origin of the aperture is its center*
0 $1 length*
0 $2 width*
0 $3 Rotation angle, in degrees counterclockwise*
0 Add horizontal line*
21,1,$1,$2,0,0,$3*%
G04 Aperture macros list end*
%ADD10RotRect,0.900000X0.900000X356.000000*%
%ADD11RotRect,0.900000X1.250000X356.000000*%
%ADD12R,2.600000X2.600000*%
%ADD13R,0.900000X1.700000*%
%ADD14RotRect,2.600000X2.600000X344.000000*%
%ADD15RotRect,2.600000X2.600000X358.000000*%
%ADD16RotRect,2.600000X2.600000X5.000000*%
%ADD17RotRect,2.600000X2.600000X348.000000*%
%ADD18RotRect,2.600000X2.600000X356.000000*%
G04 APERTURE END LIST*
D10*
%TO.C,T1*%
X95007279Y-5126932D03*
X94853815Y-7321573D03*
X102389253Y-5643129D03*
X102235789Y-7837770D03*
D11*
X100721308Y-8709248D03*
X97728616Y-8499979D03*
X96232270Y-8395344D03*
%TD*%
D12*
%TO.C,S13*%
X43357739Y36482796D03*
X31807739Y34282796D03*
%TD*%
D13*
%TO.C,*%
X108647053Y-7183403D03*
X105255335Y-6946231D03*
%TD*%
D14*
%TO.C,S31*%
X102198220Y-15638815D03*
X90489246Y-14569980D03*
%TD*%
D15*
%TO.C,S17*%
X63563396Y13364876D03*
X51943653Y11569305D03*
%TD*%
D16*
%TO.C,S3*%
X1088002Y25140493D03*
X-10226304Y21942215D03*
%TD*%
%TO.C,S1*%
X2743961Y6212794D03*
X-8570345Y3014516D03*
%TD*%
D15*
%TO.C,S21*%
X64889577Y51341727D03*
X53269834Y49546156D03*
%TD*%
%TO.C,S19*%
X64226486Y32353302D03*
X52606743Y30557731D03*
%TD*%
D17*
%TO.C,S29*%
X82495513Y-10180161D03*
X70740502Y-9930705D03*
%TD*%
D18*
%TO.C,S23*%
X83967577Y11533744D03*
X72292248Y10144790D03*
%TD*%
D12*
%TO.C,S9*%
X23357739Y52482796D03*
X11807739Y50282796D03*
%TD*%
%TO.C,S11*%
X43357739Y17482796D03*
X31807739Y15282796D03*
%TD*%
D18*
%TO.C,S27*%
X86618322Y49441178D03*
X74942993Y48052224D03*
%TD*%
D12*
%TO.C,S5*%
X23357739Y14482796D03*
X11807739Y12282796D03*
%TD*%
%TO.C,S7*%
X23357739Y33482796D03*
X11807739Y31282796D03*
%TD*%
D18*
%TO.C,S25*%
X85292950Y30487461D03*
X73617621Y29098507D03*
%TD*%
D12*
%TO.C,S15*%
X43357739Y55482796D03*
X31807739Y53282796D03*
%TD*%
M02*
